{
  "accessors": [
    {
      "bufferView": 2,
      "componentType": 5126,
      "count": 622,
      "max": [
        0.087009698152542114,
        0.087009698152542114,
        -0.99694705009460449
      ],
      "min": [
        -0.087009698152542114,
        -0.087009698152542114,
        -1.0000002384185791
      ],
      "type": "VEC3"
    },
    {
      "bufferView": 2,
      "byteOffset": 7464,
      "componentType": 5126,
      "count": 622,
      "max": [
        0.86719143390655518,
        0.86719143390655518,
        -0.49794298410415649
      ],
      "min": [
        -0.86719143390655518,
        -0.86719143390655518,
        -1
      ],
      "type": "VEC3"
    },
    {
      "bufferView": 3,
      "componentType": 5126,
      "count": 622,
      "max": [
        0.77877676486968994,
        0.83314502239227295,
        0.86701273918151855,
        1
      ],
      "min": [
        -0.77877730131149292,
        -0.75964933633804321,
        -0.80477827787399292,
        1
      ],
      "type": "VEC4"
    },
    {
      "bufferView": 1,
      "componentType": 5126,
      "count": 622,
      "max": [
        0.82825684547424316,
        1
      ],
      "min": [
        0.30696293711662292,
        0.20941363275051117
      ],
      "type": "VEC2"
    },
    {
      "bufferView": 0,
      "componentType": 5125,
      "count": 2688,
      "max": [
        621
      ],
      "min": [
        0
      ],
      "type": "SCALAR"
    },
    {
      "bufferView": 2,
      "byteOffset": 14928,
      "componentType": 5126,
      "count": 1936,
      "max": [
        0.093516938388347626,
        0.093516938388347626,
        1.0068821907043457
      ],
      "min": [
        -0.093516938388347626,
        -0.093516938388347626,
        0.45053830742835999
      ],
      "type": "VEC3"
    },
    {
      "bufferView": 2,
      "byteOffset": 38160,
      "componentType": 5126,
      "count": 1936,
      "max": [
        0.99993026256561279,
        0.99993026256561279,
        1
      ],
      "min": [
        -0.99993026256561279,
        -0.99993026256561279,
        0.011810721829533577
      ],
      "type": "VEC3"
    },
    {
      "bufferView": 3,
      "byteOffset": 9952,
      "componentType": 5126,
      "count": 1936,
      "max": [
        0.99941068887710571,
        0.99988079071044922,
        0.70052021741867065,
        1
      ],
      "min": [
        -0.999958336353302,
        -0.99999946355819702,
        -0.7248883843421936,
        1
      ],
      "type": "VEC4"
    },
    {
      "bufferView": 1,
      "byteOffset": 4976,
      "componentType": 5126,
      "count": 1936,
      "max": [
        0.99999994039535522,
        0.96884614229202271
      ],
      "min": [
        0.61242133378982544,
        0
      ],
      "type": "VEC2"
    },
    {
      "bufferView": 0,
      "byteOffset": 10752,
      "componentType": 5125,
      "count": 10368,
      "max": [
        1935
      ],
      "min": [
        0
      ],
      "type": "SCALAR"
    },
    {
      "bufferView": 2,
      "byteOffset": 61392,
      "componentType": 5126,
      "count": 4159,
      "max": [
        0.16278921067714691,
        0.16278922557830811,
        0.45240569114685059
      ],
      "min": [
        -0.16278921067714691,
        -0.16278921067714691,
        -0.99993908405303955
      ],
      "type": "VEC3"
    },
    {
      "bufferView": 2,
      "byteOffset": 111300,
      "componentType": 5126,
      "count": 4159,
      "max": [
        1,
        1,
        0.99991953372955322
      ],
      "min": [
        -1,
        -1,
        -0.99998581409454346
      ],
      "type": "VEC3"
    },
    {
      "bufferView": 3,
      "byteOffset": 40928,
      "componentType": 5126,
      "count": 4159,
      "max": [
        0.99891138076782227,
        0.99911594390869141,
        1,
        1
      ],
      "min": [
        -0.99938970804214478,
        -0.99968868494033813,
        -0.91458421945571899,
        1
      ],
      "type": "VEC4"
    },
    {
      "bufferView": 1,
      "byteOffset": 20464,
      "componentType": 5126,
      "count": 4159,
      "max": [
        0.95651078224182129,
        0.99983364343643188
      ],
      "min": [
        0,
        0
      ],
      "type": "VEC2"
    },
    {
      "bufferView": 0,
      "byteOffset": 52224,
      "componentType": 5125,
      "count": 19968,
      "max": [
        4158
      ],
      "min": [
        0
      ],
      "type": "SCALAR"
    }
  ],
  "asset": {
    "extras": {
      "author": "Wieleb (https://sketchfab.com/Wieleb)",
      "license": "CC-BY-NC-4.0 (http://creativecommons.org/licenses/by-nc/4.0/)",
      "source": "https://sketchfab.com/3d-models/bullet-65x55mm-swedish-1505cd12782b4bd99bc7b0644997ebe2",
      "title": "Bullet 6.5x55mm Swedish"
    },
    "generator": "Sketchfab-6.9.0",
    "version": "2.0"
  },
  "bufferViews": [
    {
      "buffer": 0,
      "byteLength": 132096,
      "byteOffset": 0,
      "name": "floatBufferViews",
      "target": 34963
    },
    {
      "buffer": 0,
      "byteLength": 53736,
      "byteOffset": 132096,
      "byteStride": 8,
      "name": "floatBufferViews",
      "target": 34962
    },
    {
      "buffer": 0,
      "byteLength": 161208,
      "byteOffset": 185832,
      "byteStride": 12,
      "name": "floatBufferViews",
      "target": 34962
    },
    {
      "buffer": 0,
      "byteLength": 107472,
      "byteOffset": 347040,
      "byteStride": 16,
      "name": "floatBufferViews",
      "target": 34962
    }
  ],
  "buffers": [
    {
      "byteLength": 454512,
      "uri": "bullet_scene.bin"
    }
  ],
  "images": [
    {
      "uri": "bullet_textures/Dowm_baseColor.png"
    },
    {
      "uri": "bullet_textures/Dowm_metallicRoughness.png"
    },
    {
      "uri": "bullet_textures/Dowm_normal.png"
    },
    {
      "uri": "bullet_textures/material_baseColor.png"
    },
    {
      "uri": "bullet_textures/material_metallicRoughness.png"
    },
    {
      "uri": "bullet_textures/material_normal.png"
    },
    {
      "uri": "bullet_textures/Main_baseColor.png"
    },
    {
      "uri": "bullet_textures/Main_metallicRoughness.png"
    },
    {
      "uri": "bullet_textures/Main_normal.png"
    }
  ],
  "materials": [
    {
      "doubleSided": true,
      "emissiveFactor": [
        0,
        0,
        0
      ],
      "name": "Dowm",
      "normalTexture": {
        "index": 2,
        "scale": 1,
        "texCoord": 0
      },
      "pbrMetallicRoughness": {
        "baseColorFactor": [
          1,
          1,
          1,
          1
        ],
        "baseColorTexture": {
          "index": 0,
          "texCoord": 0
        },
        "metallicFactor": 1,
        "metallicRoughnessTexture": {
          "index": 1,
          "texCoord": 0
        },
        "roughnessFactor": 1
      }
    },
    {
      "doubleSided": true,
      "emissiveFactor": [
        0,
        0,
        0
      ],
      "name": "material",
      "normalTexture": {
        "index": 5,
        "scale": 1,
        "texCoord": 0
      },
      "pbrMetallicRoughness": {
        "baseColorFactor": [
          1,
          1,
          1,
          1
        ],
        "baseColorTexture": {
          "index": 3,
          "texCoord": 0
        },
        "metallicFactor": 1,
        "metallicRoughnessTexture": {
          "index": 4,
          "texCoord": 0
        },
        "roughnessFactor": 1
      }
    },
    {
      "doubleSided": true,
      "emissiveFactor": [
        0,
        0,
        0
      ],
      "name": "Main",
      "normalTexture": {
        "index": 8,
        "scale": 1,
        "texCoord": 0
      },
      "pbrMetallicRoughness": {
        "baseColorFactor": [
          1,
          1,
          1,
          1
        ],
        "baseColorTexture": {
          "index": 6,
          "texCoord": 0
        },
        "metallicFactor": 1,
        "metallicRoughnessTexture": {
          "index": 7,
          "texCoord": 0
        },
        "roughnessFactor": 1
      }
    }
  ],
  "meshes": [
    {
      "name": "Pocisk 1_Dowm_0",
      "primitives": [
        {
          "attributes": {
            "NORMAL": 1,
            "POSITION": 0,
            "TANGENT": 2,
            "TEXCOORD_0": 3
          },
          "indices": 4,
          "material": 0,
          "mode": 4
        }
      ]
    },
    {
      "name": "Pocisk 1_Top_0",
      "primitives": [
        {
          "attributes": {
            "NORMAL": 6,
            "POSITION": 5,
            "TANGENT": 7,
            "TEXCOORD_0": 8
          },
          "indices": 9,
          "material": 1,
          "mode": 4
        }
      ]
    },
    {
      "name": "Pocisk 1_Main_0",
      "primitives": [
        {
          "attributes": {
            "NORMAL": 11,
            "POSITION": 10,
            "TANGENT": 12,
            "TEXCOORD_0": 13
          },
          "indices": 14,
          "material": 2,
          "mode": 4
        }
      ]
    }
  ],
  "nodes": [
    {
      "children": [
        1
      ],
      "name": "RootNode (gltf orientation matrix)",
      "rotation": [
        -0.70710678118654746,
        -0,
        -0,
        0.70710678118654757
      ]
    },
    {
      "children": [
        2
      ],
      "name": "RootNode (model correction matrix)"
    },
    {
      "children": [
        3
      ],
      "matrix": [
        1,
        0,
        0,
        0,
        0,
        0,
        1,
        0,
        0,
        -1,
        0,
        0,
        0,
        0,
        0,
        1
      ],
      "name": "Pocisk 6.5x55mm - lepsza siatka.fbx"
    },
    {
      "children": [
        4
      ],
      "name": "RootNode"
    },
    {
      "children": [
        5,
        6,
        7
      ],
      "matrix": [
        100,
        0,
        0,
        0,
        0,
        -1.6292067939183141e-05,
        -99.999999999998678,
        0,
        0,
        99.999999999998678,
        -1.6292067939183141e-05,
        0,
        0,
        100.07691192626953,
        0,
        1
      ],
      "name": "Pocisk 1"
    },
    {
      "mesh": 0,
      "name": "Pocisk 1_Dowm_0"
    },
    {
      "mesh": 1,
      "name": "Pocisk 1_Top_0"
    },
    {
      "mesh": 2,
      "name": "Pocisk 1_Main_0"
    }
  ],
  "samplers": [
    {
      "magFilter": 9729,
      "minFilter": 9987,
      "wrapS": 10497,
      "wrapT": 10497
    }
  ],
  "scene": 0,
  "scenes": [
    {
      "name": "OSG_Scene",
      "nodes": [
        0
      ]
    }
  ],
  "textures": [
    {
      "sampler": 0,
      "source": 0
    },
    {
      "sampler": 0,
      "source": 1
    },
    {
      "sampler": 0,
      "source": 2
    },
    {
      "sampler": 0,
      "source": 3
    },
    {
      "sampler": 0,
      "source": 4
    },
    {
      "sampler": 0,
      "source": 5
    },
    {
      "sampler": 0,
      "source": 6
    },
    {
      "sampler": 0,
      "source": 7
    },
    {
      "sampler": 0,
      "source": 8
    }
  ]
}

